Coordinates
version=1
nRows=20
nColumns=34
inDegrees=yes

Units are S.I. units (second, meters, Newtons, ...)
If the header above contains a line with 'inDegrees', this indicates whether rotational values are in degrees (yes) or radians (no).

endheader
time	pelvis_tilt	pelvis_list	pelvis_rotation	pelvis_tx	pelvis_ty	pelvis_tz	hip_flexion_r	hip_adduction_r	hip_rotation_r	knee_angle_r	ankle_angle_r	subtalar_angle_r	mtp_angle_r	hip_flexion_l	hip_adduction_l	hip_rotation_l	knee_angle_l	ankle_angle_l	subtalar_angle_l	mtp_angle_l	lumbar_extension	lumbar_bending	lumbar_rotation	arm_flex_r	arm_add_r	arm_rot_r	elbow_flex_r	pro_sup_r	arm_flex_l	arm_add_l	arm_rot_l	elbow_flex_l	pro_sup_l
      0.00000000	      1.07781944	     -5.86876576	    -13.54256623	      2.07192880	      1.00957879	      0.41530088	     11.39490264	      0.72589755	     -0.85527624	     12.72129721	      3.21848974	      3.35980872	      0.00000000	     17.45401568	     -3.56879267	     -4.60188414	     15.89420346	      3.78810883	     -4.66300101	      0.00000000	    -12.22680865	      0.50759957	     -1.69055712	     37.66915844	    -18.02902703	     16.60585509	     46.58439775	    119.74817630	      5.97988940	    -18.59858350	      7.05616735	     23.25034115	    105.23328168
      0.01666670	      1.08818972	     -5.87712262	    -13.57488072	      2.07191328	      1.00954679	      0.41509892	     11.37446283	      0.71571149	     -0.85925722	     12.72090643	      3.21573009	      3.36122340	      0.00000000	     17.46025014	     -3.59258958	     -4.60957682	     15.88568751	      3.78747061	     -4.67119685	      0.00000000	    -12.18673899	      0.49407122	     -1.73078112	     37.68970517	    -18.02702273	     16.60498814	     46.60146979	    119.74817918	      6.02507990	    -18.59350704	      7.05646104	     23.26813482	    105.23832551
      0.03333330	      1.17155978	     -5.96292767	    -13.45055253	      2.07122572	      1.00945889	      0.41435195	     11.34736465	      0.72310804	     -0.94355305	     12.77516950	      3.12311014	      3.46802627	      0.00000000	     17.39890304	     -3.62669289	     -4.95516780	     15.74578888	      3.55156948	     -4.83338530	      0.00000000	    -12.36831159	      0.56635469	     -2.06868194	     37.89708124	    -18.05456032	     16.86285121	     47.38326419	    119.74817918	      6.13774067	    -18.57977191	      7.09132666	     23.31449437	    105.44703623
      0.05000000	      1.22943930	     -5.99777523	    -13.67775454	      2.07058639	      1.00930970	      0.41446404	     11.30727408	      0.75646418	     -0.84219812	     12.71975628	      3.11923932	      3.63328499	      0.00000000	     17.32981924	     -3.75998332	     -4.58133147	     15.70609464	      3.41199279	     -4.61876568	      0.00000000	    -12.43539773	      0.43631897	     -2.05366152	     37.90654246	    -17.95975736	     17.05307916	     47.74818393	    119.74817918	      6.28924876	    -18.74332609	      7.06696513	     23.32398779	    105.51829339
      0.06666670	      1.67161387	     -6.19742052	    -13.80481429	      2.07110656	      1.00987701	      0.41464427	     10.73413275	      0.84342132	     -0.77926646	     12.66652486	      3.28533950	      4.20108239	      0.00000000	     16.55224155	     -3.86414389	     -3.71565252	     15.28197529	      3.20212930	     -4.48256095	      0.00000000	    -12.84963518	      0.48104588	     -1.62469850	     37.31136457	    -18.75506143	     17.64227325	     49.33559598	    119.74750967	      6.63126055	    -18.69088627	      6.95661526	     23.35588297	    106.09072620
      0.08333330	      1.65739016	     -6.40347407	    -13.98547687	      2.07111724	      1.00940444	      0.41450947	     10.80864993	      1.06166124	     -0.70692268	     12.85208046	      3.39117682	      4.28190185	      0.00000000	     16.26895979	     -4.07940325	     -3.28186152	     14.77049995	      3.04197213	     -4.15487896	      0.00000000	    -12.82363025	      0.68958039	     -1.55584738	     37.10656929	    -18.82622566	     17.69445519	     49.71724500	    119.74720161	      6.68197519	    -18.71638931	      6.89572046	     23.36359795	    106.20366233
      0.10000000	      1.82842759	     -6.63696976	    -14.01370396	      2.07188419	      1.00917018	      0.41391341	     10.56022966	      1.21201041	     -0.72974801	     12.90414409	      3.51243306	      4.36065333	      0.00000000	     15.64674673	     -4.17133512	     -2.73908941	     14.06682457	      3.05608871	     -3.97517110	      0.00000000	    -12.95390415	      0.93073220	     -1.21853868	     36.14296270	    -19.60349203	     17.82653135	     51.39168584	    119.74817918	      6.96653565	    -18.57175082	      6.57818204	     23.39826980	    106.58977422
      0.11666670	      1.86207728	     -6.96751386	    -14.17086424	      2.07180153	      1.00854672	      0.41361957	     10.58725586	      1.54806903	     -0.61722550	     13.16213123	      3.85811571	      4.37532071	      0.00000000	     15.31393201	     -4.45223689	     -2.41350736	     13.57988943	      2.75024805	     -3.62184069	      0.00000000	    -13.08535292	      1.30183270	     -1.13265937	     35.75248196	    -19.77167496	     17.87573300	     52.23180112	    119.74817918	      7.09979786	    -18.54893412	      6.37502238	     23.35613447	    106.76486683
      0.13333330	      2.12097418	     -6.97776212	    -14.30270225	      2.07208215	      1.00872910	      0.41354923	     10.38813822	      1.49001484	     -0.61176155	     13.32496685	      3.89242766	      4.46698847	      0.00000000	     14.74601328	     -4.30179235	     -1.93851554	     13.08229845	      2.39781995	     -3.70726831	      0.00000000	    -13.38080787	      1.10613559	     -0.74494771	     34.55015569	    -20.23713847	     17.38601248	     54.00411319	    119.74817918	      7.62915020	    -18.54562988	      5.75771569	     23.17527836	    107.69975784
      0.15000000	      2.13346031	     -6.88976643	    -14.30368444	      2.07224711	      1.00828399	      0.41297527	     10.58766601	      1.35205134	     -0.63217377	     13.69332087	      4.03513906	      4.26470549	      0.00000000	     14.58391576	     -4.09113059	     -1.43083181	     12.71053765	      2.08661113	     -3.32472594	      0.00000000	    -13.39942852	      0.96400990	     -0.74342956	     33.96512333	    -20.51475115	     17.76176974	     54.65189603	    119.74817918	      7.87525990	    -18.67370624	      5.60601029	     23.32402413	    107.89942378
      0.16666670	      2.29427146	     -6.80772232	    -14.18641786	      2.07206477	      1.00787803	      0.41218711	     10.77391530	      1.16614178	     -0.63928522	     14.33864560	      4.35889457	      3.97131020	      0.00000000	     14.47644583	     -3.81606521	     -1.01341117	     12.63884872	      1.77386806	     -3.29090711	      0.00000000	    -13.61169266	      0.78505207	     -0.69536376	     33.30144194	    -20.88144340	     18.00376514	     55.41859613	    119.74817918	      8.35533171	    -18.82755735	      5.34348236	     23.47524628	    108.09709853
      0.18333330	      2.21574114	     -6.37909950	    -14.31271503	      2.07146047	      1.00702005	      0.41128485	     11.43181370	      0.66576146	     -0.43505619	     15.09876512	      4.70679585	      4.05816297	      0.00000000	     14.50928693	     -3.09463196	      0.17904785	     12.18811964	      0.67992051	     -5.13812638	      0.00000000	    -13.54360111	      0.32296026	     -0.36111702	     32.25559262	    -21.19750161	     17.68275103	     56.46331928	    119.74817918	      8.99771966	    -18.87902306	      4.60502061	     23.41751515	    109.39306512
      0.20000000	      2.39381234	     -6.18740688	    -14.18603554	      2.07104016	      1.00658715	      0.41008385	     11.64981537	      0.35710399	     -0.32094435	     15.72523727	      4.89369905	      3.78400401	      0.00000000	     14.46634374	     -2.61991658	      0.78927079	     12.25083238	      1.06834816	     -5.12676669	      0.00000000	    -13.84523748	      0.13632322	     -0.49255454	     31.87689908	    -21.25495398	     18.13919619	     56.56317050	    119.74817918	      9.43638837	    -19.11414655	      4.50039686	     23.49429445	    109.57315428
      0.21666670	      2.52828991	     -6.02202038	    -14.07928633	      2.07104394	      1.00612027	      0.40909895	     12.00968059	      0.07059866	     -0.30112033	     16.59500627	      5.14943517	      3.38120825	      0.00000000	     14.43992163	     -2.25162881	      1.07521443	     12.35139071	      1.14860111	     -5.22812983	      0.00000000	    -14.02387504	      0.01317821	     -0.53394078	     31.30516444	    -21.38825804	     18.59002140	     56.45799436	    119.74817918	      9.85256024	    -19.37760201	      4.39905807	     23.55979605	    109.75791516
      0.23333330	      2.26743162	     -5.31358199	    -14.30669159	      2.07092850	      1.00464638	      0.40840386	     13.17822781	     -0.62306887	      0.15537998	     17.87703785	      5.82988351	      3.15246460	      0.00000000	     14.91184201	     -1.50337961	      1.12344834	     12.35319707	      0.87972011	     -5.85106044	      0.00000000	    -13.68290996	     -0.68041938	     -0.64341181	     30.77254624	    -21.18788719	     19.00662461	     55.99834633	    119.74817918	     10.02940431	    -19.83276066	      4.39081706	     23.47713756	    110.45751251
      0.25000000	      2.27857179	     -5.01542969	    -14.41417756	      2.07101499	      1.00377288	      0.40757086	     13.67722373	     -0.97861678	      0.29633624	     18.68941307	      6.19803971	      2.95229665	      0.00000000	     15.14493061	     -1.11332208	      1.05744619	     12.70497656	      1.11713022	     -6.35851412	      0.00000000	    -13.75880628	     -0.99132815	     -0.54529312	     30.27497328	    -21.15010722	     19.16930670	     55.23878843	    119.74817918	     10.41164980	    -20.11758470	      4.34136271	     23.57139940	    110.84465222
      0.26666670	      2.08887162	     -4.43266805	    -14.83000190	      2.07151733	      1.00251554	      0.40748711	     14.48569549	     -1.47075603	      0.64012332	     19.49034315	      6.69504731	      2.61528284	      0.00000000	     15.62716814	     -0.57548295	      0.78848047	     13.06834044	      0.98745801	     -6.79742556	      0.00000000	    -13.41143311	     -1.60475180	     -0.37587757	     29.85594823	    -20.79580023	     19.65681967	     53.98241772	    119.74817918	     10.60558368	    -20.52400586	      4.25229517	     23.38666057	    111.49174724
      0.28333330	      2.14580737	     -4.24821115	    -14.95430285	      2.07169640	      1.00196044	      0.40653427	     14.75565149	     -1.70417991	      0.47629721	     19.94992605	      6.78932188	      2.24304485	      0.00000000	     15.72693187	     -0.30940233	      0.67799001	     13.31809226	      1.19253234	     -7.01139522	      0.00000000	    -13.56042549	     -1.74209762	     -0.02157776	     29.44594410	    -20.91821258	     19.92060985	     52.86753311	    119.74817918	     11.26025914	    -20.62874214	      4.19521749	     23.55135585	    111.67725786
      0.30000000	      1.84878354	     -3.54856516	    -15.70421005	      2.07086359	      1.00039265	      0.40658891	     16.04643887	     -2.13989391	      1.29875235	     21.12244928	      6.86810195	      1.48078423	      0.00000000	     16.28744774	      0.18124440	     -0.11725686	     13.43443832	      1.05268385	     -7.34879152	      0.00000000	    -13.14626258	     -2.46280113	      0.43196366	     29.61037735	    -20.78511061	     21.09883166	     50.73920379	    119.74817918	     11.69605288	    -21.04913821	      4.25125743	     23.34983736	    112.90835990
      0.31666670	      1.83633507	     -3.19723098	    -16.00707218	      2.07087367	      0.99997945	      0.40644063	     16.56667103	     -2.39688942	      1.54004903	     21.73866363	      6.89475700	      0.89204055	      0.00000000	     16.42509156	      0.49931453	     -0.47650936	     13.50048502	      1.04427751	     -7.43528854	      0.00000000	    -13.03924148	     -2.80961090	      0.79026944	     29.48972273	    -20.54285932	     21.46784773	     48.56814154	    119.74817918	     12.35272535	    -21.18406250	      4.05063765	     22.97296844	    113.57352695
